<?xml version="1.0" encoding="UTF-8" standalone="no"?>
<svg
   viewBox="0 0 512 512"
   version="1.1"
   id="svg19"
   sodipodi:docname="moon-regular.svg"
   inkscape:version="1.2.2 (732a01da63, 2022-12-09)"
   xmlns:inkscape="http://www.inkscape.org/namespaces/inkscape"
   xmlns:sodipodi="http://sodipodi.sourceforge.net/DTD/sodipodi-0.dtd"
   xmlns="http://www.w3.org/2000/svg"
   xmlns:svg="http://www.w3.org/2000/svg">
  <defs
     id="defs23" />
  <sodipodi:namedview
     id="namedview21"
     pagecolor="#ffffff"
     bordercolor="#000000"
     borderopacity="0.25"
     inkscape:showpageshadow="2"
     inkscape:pageopacity="0.0"
     inkscape:pagecheckerboard="0"
     inkscape:deskcolor="#d1d1d1"
     showgrid="false"
     inkscape:zoom="0.98046875"
     inkscape:cx="256"
     inkscape:cy="256"
     inkscape:window-width="1366"
     inkscape:window-height="705"
     inkscape:window-x="-8"
     inkscape:window-y="-8"
     inkscape:window-maximized="1"
     inkscape:current-layer="svg19" />
  <!--! Font Awesome Pro 6.2.1 by @fontawesome - https://fontawesome.com License - https://fontawesome.com/license (Commercial License) Copyright 2022 Fonticons, Inc. -->
  <path
     d="M421.6 379.9c-.6641 0-1.35 .0625-2.049 .1953c-11.24 2.143-22.37 3.17-33.32 3.17c-94.81 0-174.1-77.14-174.1-175.5c0-63.19 33.79-121.3 88.73-152.6c8.467-4.812 6.339-17.66-3.279-19.44c-11.2-2.078-29.53-3.746-40.9-3.746C132.3 31.1 32 132.2 32 256c0 123.6 100.1 224 223.8 224c69.04 0 132.1-31.45 173.8-82.93C435.3 389.1 429.1 379.9 421.6 379.9zM255.8 432C158.9 432 80 353 80 256c0-76.32 48.77-141.4 116.7-165.8C175.2 125 163.2 165.6 163.2 207.8c0 99.44 65.13 183.9 154.9 212.8C298.5 428.1 277.4 432 255.8 432z"
     id="path17"
     style="fill:#ffffff" />
</svg>
